<?xml version="1.0" encoding="utf-8"?>
<!-- Generator: Adobe Illustrator 23.0.1, SVG Export Plug-In . SVG Version: 6.00 Build 0)  -->
<svg version="1.1" id="Layer_1" xmlns="http://www.w3.org/2000/svg" xmlns:xlink="http://www.w3.org/1999/xlink" x="0px" y="0px"
	 viewBox="0 0 258.7 353.5" style="enable-background:new 0 0 258.7 353.5;" xml:space="preserve">
<style type="text/css">
	.st0{fill:#1B1825;}
</style>
<path class="st0" d="M239.3,170.6c-6.2-9.9-6.4-22.5-0.8-32.8c10.3-18.5,16.5-40.1,16.5-58c0-44-35.8-79.9-79.9-79.9H83.6
	C39.6,0,3.7,35.8,3.7,79.9c0,18,6.2,39.6,16.5,58c5.7,10.2,5.4,22.8-0.8,32.8C7.1,190.5,0,213.8,0,238.9c0,45.9,23.9,86.2,60,109.2
	c6.7,4.2,14.6,5.7,22.5,5.4c14.9-0.7,30.6-1.1,46.9-1.1c16.3,0,32,0.4,46.9,1.1c7.9,0.4,15.9-1.1,22.5-5.4c36-23,60-63.3,60-109.2
	C258.7,213.8,251.6,190.5,239.3,170.6z M199.5,12.8c20.4,7.4,42.9,24.1,46.9,56.7c0.3,2.5-3.9,2.4-4.6-0.1
	c-6.1-22.5-21.7-41-42.3-51C197.1,17.2,197,11.9,199.5,12.8z M42.5,111c3.1,5.6,7.8,10,13.7,12.7c2.5,1.2,2.6,5.8-0.1,5.3
	c-8.2-1.5-15.3-6.1-18.3-14.5c-0.4-1-0.7-2.1-1.1-3.1C35.7,108.6,41.1,108.4,42.5,111z M68.9,333.1c-31.4-20-52.2-55.1-52.2-95.1
	c0-23,6.9-44.4,18.8-62.3C27,192.2,22.3,211,22.3,230.8c0,43.4,22.6,81.5,56.7,103.2c2.6,1.7,5.4,2.9,8.4,3.7
	C80.9,337.9,74.4,336.5,68.9,333.1z M171.1,129.3c-3.1-0.3-6.3-1.1-9.3-2.1c-8.9-3.1-18.3-5.3-27.9-6.4c-1.8-0.2-2.1-3.3-0.3-3.2
	c12.3,0.4,24.4,2.7,36,6.7c0.5,0.2,1,0.3,1.5,0.5C173.4,125.6,173.5,129.6,171.1,129.3z M172.2,116.8c-13.4-4.7-27.8-7.3-42.9-7.3
	c-15,0-29.4,2.6-42.9,7.3c-14.8,5.2-33,2.1-38.4-12.6c-3.1-8.4-4.9-16.9-4.9-24.3c0-22.2,18.1-40.3,40.3-40.3h91.5
	c22.2,0,40.3,18.1,40.3,40.3c0,7.4-1.8,15.9-4.9,24.3C205.2,118.9,187.1,122,172.2,116.8z M179.1,121.4c13.9,3.3,29.2-0.5,34.1-13.9
	c0.7-2,2.4,1.5,1.7,3.5C210,124.4,193.5,129.3,179.1,121.4z M220.1,251.2c-10.4,3.6-18-13.4-25.5-35.2c-7.5-21.8-12-40.3-1.6-43.8
	c10.4-3.6,24.8,11.3,32.3,33.1C232.8,227.1,230.5,247.6,220.1,251.2z M247.5,234.6c-2.9-25.2-13-48.3-28.2-67
	c-1.3-1.6-1.4-3.8-0.2-5.4c1.1-1.4,3.1-1.5,4.3-0.2c16.8,20.6,26.4,46.1,27.3,72.7C250.7,236.7,247.7,236.5,247.5,234.6z"/>
</svg>
